<?xml version="1.0" standalone="no"?>
<!DOCTYPE svg PUBLIC "-//W3C//DTD SVG 20010904//EN"
 "http://www.w3.org/TR/2001/REC-SVG-20010904/DTD/svg10.dtd">
<svg version="1.0" xmlns="http://www.w3.org/2000/svg"
 width="16.000000pt" height="16.000000pt" viewBox="0 0 16.000000 16.000000"
 preserveAspectRatio="xMidYMid meet">
<metadata>
Created by potrace 1.11, written by Peter Selinger 2001-2013
</metadata>
<g transform="translate(0.000000,16.000000) scale(0.003125,-0.003125)"
fill="#000000" stroke="none">
<path d="M2430 5105 c-112 -23 -205 -63 -560 -240 -368 -185 -410 -204 -565
-267 -255 -103 -542 -193 -837 -262 l-158 -38 0 -169 c0 -445 65 -943 180
-1384 215 -829 653 -1585 1230 -2124 259 -241 535 -445 755 -558 l90 -46 90
53 c266 156 488 332 769 609 642 634 1076 1443 1270 2369 72 340 116 758 116
1089 l0 161 -157 38 c-296 69 -583 159 -838 262 -155 63 -197 82 -565 267
-190 95 -379 185 -420 200 -148 53 -272 66 -400 40z m325 -229 c39 -15 239
-111 445 -215 535 -267 883 -400 1328 -506 40 -9 74 -20 76 -24 7 -12 -14
-385 -29 -526 -62 -567 -206 -1087 -437 -1575 -169 -358 -439 -758 -712 -1059
-201 -221 -501 -480 -738 -638 l-128 -85 -72 43 c-593 349 -1128 939 -1465
1614 -256 510 -409 1049 -478 1680 -15 139 -36 534 -29 546 2 4 36 15 76 24
445 106 793 239 1328 506 502 251 499 250 660 245 85 -3 119 -8 175 -30z"/>
<path d="M3365 4213 c-45 -10 -84 -38 -116 -86 l-34 -50 0 -352 0 -352 30 -49
c18 -28 47 -58 70 -71 39 -22 46 -23 398 -23 245 0 365 4 380 11 37 19 88 72
103 108 18 43 21 688 3 742 -17 52 -74 105 -125 118 -41 11 -664 14 -709 4z"/>
<path d="M1559 3031 c-69 -14 -126 -60 -167 -137 l-22 -42 0 -672 c0 -499 3
-683 12 -714 16 -55 99 -138 154 -154 59 -17 1349 -17 1408 0 26 8 60 31 92
63 43 42 54 61 64 106 8 39 10 236 8 719 l-3 665 -23 42 c-25 45 -64 83 -116
111 -28 16 -89 17 -701 19 -369 0 -686 -2 -706 -6z"/>
</g>
</svg>
