<?xml version="1.0" encoding="UTF-8"?>
<!-- Generator: Adobe Illustrator 16.0.0, SVG Export Plug-In . SVG Version: 6.00 Build 0)  -->
<svg version="1.1" id="Layer_1" x="0px" y="0px" width="72.667px" height="72px" viewBox="13.833 13.833 72.667 72" enable-background="new 13.833 13.833 72.667 72" xml:space="preserve" xmlns="http://www.w3.org/2000/svg" xmlns:xlink="http://www.w3.org/1999/xlink">
<g id="White_1_">
	<path fill="#5A5959" d="M82.025,14H17.974C15.779,14,14,15.779,14,17.974v64.053C14,84.221,15.779,86,17.974,86h34.483V58.118    h-9.383V47.252h9.383v-8.014c0-9.3,5.68-14.363,13.977-14.363c3.974,0,7.389,0.295,8.385,0.428v9.719l-5.754,0.003    c-4.513,0-5.385,2.144-5.385,5.29v6.938h10.76l-1.401,10.866H63.68V86h18.348C84.221,86,86,84.221,86,82.025V17.974    C86,15.779,84.221,14,82.025,14z"/>
</g>
</svg>
