<?xml version="1.0" encoding="UTF-8"?>
<!-- Generator: Adobe Illustrator 16.0.0, SVG Export Plug-In . SVG Version: 6.00 Build 0)  -->
<svg version="1.1" id="Layer_1" x="0px" y="0px" width="73px" height="72px" viewBox="13.5 14.167 73 72" enable-background="new 13.5 14.167 73 72" xml:space="preserve" xmlns="http://www.w3.org/2000/svg" xmlns:xlink="http://www.w3.org/1999/xlink">
<g>
	<path fill="#5A5959" d="M79,14H21c-3.85,0-7,3.15-7,7v58c0,3.85,3.15,7,7,7h58c3.85,0,7-3.15,7-7V21C86,17.15,82.85,14,79,14z     M35.435,61.5c-6.456,0-11.69-5.232-11.69-11.689c0-6.456,5.234-11.69,11.69-11.69s11.689,5.233,11.689,11.69    C47.124,56.268,41.891,61.5,35.435,61.5z M65.068,61.5c-6.457,0-11.69-5.232-11.69-11.689c0-6.456,5.233-11.69,11.69-11.69    c6.455,0,11.688,5.233,11.688,11.69C76.758,56.268,71.523,61.5,65.068,61.5z"/>
</g>
</svg>
