<?xml version="1.0" encoding="UTF-8"?>
<!-- Generator: Adobe Illustrator 16.0.0, SVG Export Plug-In . SVG Version: 6.00 Build 0)  -->
<svg version="1.1" id="Layer_1" x="0px" y="0px" width="72.313px" height="71.5px" viewBox="12.25 13.25 72.313 71.5" enable-background="new 12.25 13.25 72.313 71.5" xml:space="preserve" xmlns="http://www.w3.org/2000/svg" xmlns:xlink="http://www.w3.org/1999/xlink">
<g>
	<path fill="#5A5959" d="M23.444,50.689c1.757,1.379,3.766,2.068,6.026,2.068c2.855-0.105,5.234-1.133,7.138-3.077    c0.918-1.377,1.508-2.791,1.77-4.24c0.157-1.447,0.236-2.668,0.236-3.658c0-4.276-1.094-8.588-3.281-12.936    c-1.026-2.084-2.376-3.781-4.051-5.09c-1.71-1.236-3.675-1.891-5.897-1.961c-2.939,0.07-5.384,1.256-7.331,3.553    c-1.644,2.404-2.43,5.09-2.358,8.057c0,3.924,1.147,8.008,3.444,12.248C20.251,47.632,21.686,49.312,23.444,50.689z"/>
	<path fill="#5A5959" d="M30.031,67.148c-0.782-1.027-1.479-2.127-2.091-3.299c-0.714-1.133-1.07-2.5-1.07-4.098    c0-0.955,0.135-1.756,0.407-2.395c0.238-0.674,0.459-1.293,0.663-1.861c-1.232,0.145-2.394,0.213-3.485,0.213    c-5.169-0.061-9.237-1.525-12.205-4.387V70.66c2.652-1.215,5.399-2.068,8.241-2.561C24.32,67.535,27.5,67.219,30.031,67.148z"/>
	<path fill="#5A5959" d="M32.99,70.213c-0.691-0.072-1.502-0.107-2.435-0.107c-0.553-0.07-1.969,0-4.248,0.213    c-2.246,0.316-4.542,0.828-6.89,1.533c-0.553,0.213-1.33,0.529-2.331,0.953c-1.002,0.459-2.021,1.109-3.056,1.959    c-0.662,0.582-1.254,1.258-1.78,2.023v2.949c0,2.766,2.248,5.014,5.013,5.014h27.326c0.001-0.066,0.005-0.133,0.005-0.197    c0-2.752-0.899-5.15-2.694-7.197C40,75.414,37.031,73.035,32.99,70.213z"/>
	<path fill="#5A5959" d="M79.236,13.445H66.285H48.254H29.938H17.263c-2.766,0-5.013,2.246-5.013,5.014v5.43v1.293    c0.316-0.336,0.643-0.67,0.985-1c3.083-2.539,6.288-4.195,9.612-4.973c3.29-0.67,6.375-1.004,9.253-1.004h21.692l-6.699,3.91    h-6.689c0.681,0.422,1.448,1.041,2.299,1.852c0.817,0.846,1.618,1.887,2.401,3.121c0.749,1.164,1.413,2.539,1.992,4.127    c0.476,1.586,0.715,3.44,0.715,5.555c-0.064,3.881-0.921,6.984-2.569,9.312c-0.809,1.129-1.665,2.168-2.569,3.121    c-1.002,0.954-2.068,1.922-3.199,2.91c-0.646,0.67-1.244,1.428-1.793,2.275c-0.646,0.881-0.97,1.902-0.97,3.066    c0,1.129,0.332,2.063,0.994,2.805c0.563,0.707,1.11,1.322,1.641,1.854l3.68,3.016c2.287,1.869,4.292,3.932,6.016,6.189    c1.625,2.293,2.47,5.291,2.536,8.994c0,1.531-0.198,3.01-0.592,4.438h28.25c2.766,0,5.014-2.246,5.014-5.014V23.888v-5.43    C84.25,15.691,82.002,13.445,79.236,13.445z M83.182,35.562H71.799v11.383h-5.514V35.562H54.902v-5.514h11.383V18.667h5.514v11.381    h11.383V35.562z"/>
</g>
</svg>
