<?xml version="1.0" encoding="UTF-8"?>
<!-- Generator: Adobe Illustrator 16.0.0, SVG Export Plug-In . SVG Version: 6.00 Build 0)  -->
<svg version="1.1" id="Layer_1" x="0px" y="0px" width="72.333px" height="72px" viewBox="13.5 14 72.333 72" enable-background="new 13.5 14 72.333 72" xml:space="preserve" xmlns="http://www.w3.org/2000/svg" xmlns:xlink="http://www.w3.org/1999/xlink">
<g>
	<path fill="#5A5959" d="M80.5,14H19.148c-2.934,0-5.315,2.325-5.315,5.188v61.617c0,2.867,2.381,5.195,5.315,5.195H80.5    c2.937,0,5.333-2.328,5.333-5.195V19.188C85.833,16.325,83.437,14,80.5,14z M35.187,75.354H24.503V40.995h10.684V75.354z     M29.845,36.297c-3.423,0-6.19-2.774-6.19-6.194c0-3.415,2.767-6.189,6.19-6.189c3.415,0,6.189,2.774,6.189,6.189    C36.034,33.523,33.26,36.297,29.845,36.297z M75.183,75.354H64.517V58.646c0-3.986-0.078-9.111-5.552-9.111    c-5.558,0-6.405,4.341-6.405,8.822v16.998H41.885v-34.36H52.13v4.692h0.146c1.426-2.7,4.91-5.549,10.105-5.549    c10.807,0,12.803,7.114,12.803,16.369v18.847H75.183z"/>
</g>
</svg>
