<?xml version="1.0" encoding="UTF-8"?>
<!-- Generator: Adobe Illustrator 16.0.0, SVG Export Plug-In . SVG Version: 6.00 Build 0)  -->
<svg version="1.1" id="Layer_1" x="0px" y="0px" width="72px" height="72px" viewBox="13.833 13.833 72 72" enable-background="new 13.833 13.833 72 72" xml:space="preserve" xmlns="http://www.w3.org/2000/svg" xmlns:xlink="http://www.w3.org/1999/xlink">
<g>
	<path fill="#5A5959" d="M79,14H21c-3.85,0-7,3.15-7,7v58c0,3.85,3.15,7,7,7h58c3.85,0,7-3.15,7-7V21C86,17.15,82.85,14,79,14z     M71.971,39.205c0.021,0.477,0.031,0.956,0.031,1.435c0,14.639-11.143,31.52-31.522,31.52c-6.256,0-12.08-1.833-16.983-4.977    c0.868,0.104,1.749,0.154,2.643,0.154c5.191,0,9.968-1.771,13.76-4.742c-4.849-0.091-8.94-3.295-10.35-7.695    c0.677,0.131,1.37,0.199,2.085,0.199c1.011,0,1.989-0.137,2.918-0.389c-5.068-1.02-8.887-5.497-8.887-10.864    c0-0.047,0-0.093,0.001-0.139c1.494,0.829,3.202,1.327,5.018,1.386c-2.973-1.988-4.929-5.377-4.929-9.222    c0-2.029,0.547-3.933,1.5-5.57c5.465,6.704,13.628,11.115,22.836,11.577c-0.189-0.811-0.287-1.658-0.287-2.525    c0-6.12,4.96-11.079,11.08-11.079c3.186,0,6.065,1.346,8.086,3.498c2.522-0.495,4.896-1.418,7.035-2.687    c-0.826,2.585-2.585,4.756-4.871,6.127c2.242-0.267,4.376-0.863,6.363-1.743C76.016,35.692,74.137,37.644,71.971,39.205z"/>
</g>
</svg>
