<?xml version="1.0" encoding="UTF-8"?>
<!-- Generator: Adobe Illustrator 16.0.0, SVG Export Plug-In . SVG Version: 6.00 Build 0)  -->
<svg version="1.1" id="Layer_1" x="0px" y="0px" width="72.333px" height="71.667px" viewBox="13.833 14.167 72.333 71.667" enable-background="new 13.833 14.167 72.333 71.667" xml:space="preserve" xmlns="http://www.w3.org/2000/svg" xmlns:xlink="http://www.w3.org/1999/xlink">
<g>
	<g>
		<g>
			<path fill="#5A5959" d="M45.19,70.391c-0.696,0.984-1.355,1.469-1.985,1.469c-0.42,0-0.659-0.245-0.735-0.733      c-0.03-0.101-0.03-0.483-0.03-1.22v-12.76h-3.138V70.85c0,1.226,0.104,2.051,0.277,2.576c0.313,0.879,1.011,1.289,2.023,1.289      c1.154,0,2.34-0.697,3.587-2.129v1.891h3.143v-17.33H45.19V70.391z"/>
			<polygon fill="#5A5959" points="27.897,54.492 31.591,54.492 31.591,74.477 35.083,74.477 35.083,54.492 38.845,54.492       38.845,51.218 27.897,51.218    "/>
			<path fill="#5A5959" d="M49.281,39.34c1.023,0,1.513-0.81,1.513-2.431v-7.368c0-1.619-0.49-2.426-1.513-2.426      c-1.024,0-1.515,0.807-1.515,2.426v7.368C47.767,38.529,48.257,39.34,49.281,39.34z"/>
			<path fill="#5A5959" d="M57.434,56.936c-1.154,0-2.229,0.631-3.242,1.879v-7.597H51.05v23.259h3.142v-1.682      c1.047,1.299,2.127,1.92,3.242,1.92c1.252,0,2.092-0.658,2.512-1.947c0.209-0.734,0.316-1.889,0.316-3.492v-6.9      c0-1.641-0.107-2.786-0.316-3.482C59.523,57.593,58.686,56.936,57.434,56.936z M57.121,69.521c0,1.565-0.461,2.338-1.366,2.338      c-0.517,0-1.04-0.246-1.565-0.771V60.523c0.525-0.517,1.049-0.763,1.565-0.763c0.906,0,1.366,0.802,1.366,2.365V69.521z"/>
			<path fill="#5A5959" d="M67.436,56.936c-1.603,0-2.854,0.59-3.761,1.777c-0.668,0.875-0.971,2.229-0.971,4.08v6.072      c0,1.84,0.342,3.209,1.009,4.074c0.907,1.183,2.157,1.774,3.801,1.774c1.641,0,2.928-0.621,3.797-1.877      c0.381-0.56,0.629-1.188,0.733-1.883c0.028-0.315,0.067-1.013,0.067-2.022v-0.461h-3.205c0,1.26-0.039,1.957-0.068,2.129      c-0.179,0.838-0.631,1.258-1.402,1.258c-1.078,0-1.603-0.799-1.603-2.403v-3.072h6.278v-3.59c0-1.853-0.314-3.205-0.971-4.08      C70.262,57.525,69.012,56.936,67.436,56.936z M68.973,63.77h-3.14v-1.604c0-1.602,0.524-2.404,1.574-2.404      c1.038,0,1.565,0.803,1.565,2.404V63.77z"/>
			<path fill="#5A5959" d="M79,14H21c-3.85,0-7,3.15-7,7v58c0,3.85,3.15,7,7,7h58c3.85,0,7-3.15,7-7V21C86,17.15,82.85,14,79,14z       M56.58,24.47h3.163v12.892c0,0.746,0,1.133,0.039,1.235c0.069,0.492,0.317,0.743,0.743,0.743c0.635,0,1.302-0.492,2.004-1.486      V24.47h3.175v17.51h-3.175v-1.91c-1.262,1.449-2.467,2.153-3.625,2.153c-1.021,0-1.727-0.415-2.043-1.303      c-0.176-0.529-0.281-1.368-0.281-2.604V24.47z M44.593,30.178c0-1.871,0.319-3.24,0.994-4.125      c0.878-1.196,2.114-1.795,3.694-1.795c1.59,0,2.824,0.599,3.703,1.795c0.664,0.885,0.984,2.254,0.984,4.125v6.135      c0,1.86-0.32,3.24-0.984,4.119c-0.879,1.193-2.112,1.792-3.703,1.792c-1.581,0-2.817-0.599-3.694-1.792      c-0.675-0.879-0.994-2.259-0.994-4.119V30.178z M36.107,18.482l2.499,9.227l2.399-9.227h3.558l-4.232,13.982v9.516h-3.52v-9.516      c-0.318-1.688-1.022-4.158-2.15-7.435c-0.742-2.18-1.515-4.37-2.256-6.547H36.107z M75.073,75.518      c-0.634,2.764-2.896,4.801-5.616,5.104c-6.443,0.72-12.965,0.724-19.457,0.72c-6.493,0.004-13.014,0-19.457-0.72      c-2.721-0.304-4.979-2.343-5.614-5.104c-0.905-3.936-0.905-8.231-0.905-12.281c0-4.055,0.01-8.348,0.916-12.284      c0.634-2.762,2.893-4.799,5.614-5.103c6.443-0.722,12.964-0.724,19.457-0.722c6.492-0.002,13.012,0,19.457,0.722      c2.72,0.304,4.98,2.341,5.615,5.103c0.905,3.938,0.899,8.229,0.899,12.284C75.984,67.286,75.979,71.582,75.073,75.518z"/>
		</g>
	</g>
</g>
</svg>
